<?xml version="1.0" encoding="utf-8" standalone="no"?>
<!DOCTYPE svg PUBLIC "-//W3C//DTD SVG 1.1//EN"
  "http://www.w3.org/Graphics/SVG/1.1/DTD/svg11.dtd">
<svg xmlns:xlink="http://www.w3.org/1999/xlink" width="1152pt" height="720pt" viewBox="0 0 1152 720" xmlns="http://www.w3.org/2000/svg" version="1.1">
 <metadata>
  <rdf:RDF xmlns:dc="http://purl.org/dc/elements/1.1/" xmlns:cc="http://creativecommons.org/ns#" xmlns:rdf="http://www.w3.org/1999/02/22-rdf-syntax-ns#">
   <cc:Work>
    <dc:type rdf:resource="http://purl.org/dc/dcmitype/StillImage"/>
    <dc:date>2025-04-04T15:08:14.993112</dc:date>
    <dc:format>image/svg+xml</dc:format>
    <dc:creator>
     <cc:Agent>
      <dc:title>Matplotlib v3.10.1, https://matplotlib.org/</dc:title>
     </cc:Agent>
    </dc:creator>
   </cc:Work>
  </rdf:RDF>
 </metadata>
 <defs>
  <style type="text/css">*{stroke-linejoin: round; stroke-linecap: butt}</style>
 </defs>
 <g id="figure_1">
  <g id="patch_1">
   <path d="M 0 720 
L 1152 720 
L 1152 0 
L 0 0 
z
" style="fill: #ffffff"/>
  </g>
  <g id="axes_1">
   <g id="patch_2">
    <path d="M 11.52 712.8 
L 1140.48 712.8 
L 1140.48 7.2 
L 11.52 7.2 
z
" style="fill: #eaeaf2"/>
   </g>
   <g id="matplotlib.axis_1"/>
   <g id="matplotlib.axis_2"/>
   <g id="line2d_1">
    <path d="M 11.52 30.173023 
L 1140.48 30.173023 
" style="fill: none; stroke: #0307ff; stroke-width: 50"/>
   </g>
   <g id="line2d_2">
    <path d="M 11.52 154.883721 
L 1140.48 154.883721 
" clip-path="url(#pedf2f608b7)" style="fill: none; stroke: #2ca02c; stroke-opacity: 0.8; stroke-width: 14; stroke-linecap: round"/>
   </g>
   <g id="line2d_3">
    <path d="M 11.52 253.339535 
L 1140.48 253.339535 
" clip-path="url(#pedf2f608b7)" style="fill: none; stroke: #d62728; stroke-opacity: 0.8; stroke-width: 14; stroke-linecap: round"/>
   </g>
   <g id="line2d_4">
    <path d="M 11.52 614.344186 
L 1140.48 614.344186 
" clip-path="url(#pedf2f608b7)" style="fill: none; stroke: #2ca02c; stroke-opacity: 0.8; stroke-width: 14; stroke-linecap: round"/>
   </g>
   <g id="line2d_5">
    <path d="M 11.52 515.888372 
L 1140.48 515.888372 
" clip-path="url(#pedf2f608b7)" style="fill: none; stroke: #d62728; stroke-opacity: 0.8; stroke-width: 14; stroke-linecap: round"/>
   </g>
   <g id="patch_3">
    <path d="M 11.52 712.8 
L 11.52 7.2 
" style="fill: none"/>
   </g>
   <g id="patch_4">
    <path d="M 1140.48 712.8 
L 1140.48 7.2 
" style="fill: none"/>
   </g>
   <g id="patch_5">
    <path d="M 11.52 712.8 
L 1140.48 712.8 
" style="fill: none"/>
   </g>
   <g id="patch_6">
    <path d="M 11.52 7.2 
L 1140.48 7.2 
" style="fill: none"/>
   </g>
   <g id="patch_7">
    <path d="M 62.836364 384.613953 
L 103.349282 384.613953 
L 103.349282 360 
L 62.836364 360 
z
" clip-path="url(#pedf2f608b7)" style="fill: #73c000; opacity: 0.9; stroke: #000000; stroke-linejoin: miter"/>
   </g>
   <g id="patch_8">
    <path d="M 103.349282 384.613953 
L 143.862201 384.613953 
L 143.862201 401.351442 
L 103.349282 401.351442 
z
" clip-path="url(#pedf2f608b7)" style="fill: url(#hd9baefc2ee); opacity: 0.9; stroke: #000000; stroke-linejoin: miter"/>
   </g>
   <g id="patch_9">
    <path d="M 197.879426 384.613953 
L 238.392344 384.613953 
L 238.392344 690.811535 
L 197.879426 690.811535 
z
" clip-path="url(#pedf2f608b7)" style="fill: #df89ff; opacity: 0.9; stroke: #000000; stroke-linejoin: miter"/>
   </g>
   <g id="patch_10">
    <path d="M 238.392344 384.613953 
L 278.905263 384.613953 
L 278.905263 708.205395 
L 238.392344 708.205395 
z
" clip-path="url(#pedf2f608b7)" style="fill: url(#h778a81bf24); opacity: 0.9; stroke: #000000; stroke-linejoin: miter"/>
   </g>
   <g id="patch_11">
    <path d="M 332.922488 384.613953 
L 373.435407 384.613953 
L 373.435407 363.610047 
L 332.922488 363.610047 
z
" clip-path="url(#pedf2f608b7)" style="fill: #660068; opacity: 0.9; stroke: #000000; stroke-linejoin: miter"/>
   </g>
   <g id="patch_12">
    <path d="M 373.435407 384.613953 
L 413.948325 384.613953 
L 413.948325 391.177674 
L 373.435407 391.177674 
z
" clip-path="url(#pedf2f608b7)" style="fill: url(#h5fb554ad70); opacity: 0.9; stroke: #000000; stroke-linejoin: miter"/>
   </g>
   <g id="patch_13">
    <path d="M 467.96555 384.613953 
L 508.478469 384.613953 
L 508.478469 529.672186 
L 467.96555 529.672186 
z
" clip-path="url(#pedf2f608b7)" style="fill: #00c4ff; opacity: 0.9; stroke: #000000; stroke-linejoin: miter"/>
   </g>
   <g id="patch_14">
    <path d="M 508.478469 384.613953 
L 548.991388 384.613953 
L 548.991388 489.305302 
L 508.478469 489.305302 
z
" clip-path="url(#pedf2f608b7)" style="fill: url(#h211101b022); opacity: 0.9; stroke: #000000; stroke-linejoin: miter"/>
   </g>
   <g id="patch_15">
    <path d="M 603.008612 384.613953 
L 643.521531 384.613953 
L 643.521531 342.934326 
L 603.008612 342.934326 
z
" clip-path="url(#pedf2f608b7)" style="fill: #ff8805; opacity: 0.9; stroke: #000000; stroke-linejoin: miter"/>
   </g>
   <g id="patch_16">
    <path d="M 643.521531 384.613953 
L 684.03445 384.613953 
L 684.03445 402.992372 
L 643.521531 402.992372 
z
" clip-path="url(#pedf2f608b7)" style="fill: url(#h9fdc23ea7a); opacity: 0.9; stroke: #000000; stroke-linejoin: miter"/>
   </g>
   <g id="patch_17">
    <path d="M 738.051675 384.613953 
L 778.564593 384.613953 
L 778.564593 712.8 
L 738.051675 712.8 
z
" clip-path="url(#pedf2f608b7)" style="fill: #ff5584; opacity: 0.9; stroke: #000000; stroke-linejoin: miter"/>
   </g>
   <g id="patch_18">
    <path d="M 778.564593 384.613953 
L 819.077512 384.613953 
L 819.077512 712.8 
L 778.564593 712.8 
z
" clip-path="url(#pedf2f608b7)" style="fill: url(#h50c1e3590f); opacity: 0.9; stroke: #000000; stroke-linejoin: miter"/>
   </g>
   <g id="patch_19">
    <path d="M 873.094737 384.613953 
L 913.607656 384.613953 
L 913.607656 477.162419 
L 873.094737 477.162419 
z
" clip-path="url(#pedf2f608b7)" style="fill: #0000ff; opacity: 0.9; stroke: #000000; stroke-linejoin: miter"/>
   </g>
   <g id="patch_20">
    <path d="M 913.607656 384.613953 
L 954.120574 384.613953 
L 954.120574 330.13507 
L 913.607656 330.13507 
z
" clip-path="url(#pedf2f608b7)" style="fill: url(#hf36e494769); opacity: 0.9; stroke: #000000; stroke-linejoin: miter"/>
   </g>
   <g id="patch_21">
    <path d="M 1008.137799 384.613953 
L 1048.650718 384.613953 
L 1048.650718 306.177488 
L 1008.137799 306.177488 
z
" clip-path="url(#pedf2f608b7)" style="fill: #00bd94; opacity: 0.9; stroke: #000000; stroke-linejoin: miter"/>
   </g>
   <g id="patch_22">
    <path d="M 1048.650718 384.613953 
L 1089.163636 384.613953 
L 1089.163636 255.636837 
L 1048.650718 255.636837 
z
" clip-path="url(#pedf2f608b7)" style="fill: url(#h448db11d77); opacity: 0.9; stroke: #000000; stroke-linejoin: miter"/>
   </g>
   <g id="line2d_6">
    <path d="M 11.52 384.613953 
L 1140.48 384.613953 
" clip-path="url(#pedf2f608b7)" style="fill: none; stroke: #000000; stroke-opacity: 0.8; stroke-width: 14; stroke-linecap: round"/>
   </g>
  </g>
 </g>
 <defs>
  <clipPath id="pedf2f608b7">
   <rect x="11.52" y="7.2" width="1128.96" height="705.6"/>
  </clipPath>
 </defs>
 <defs>
  <pattern id="hd9baefc2ee" patternUnits="userSpaceOnUse" x="0" y="0" width="72" height="72">
   <rect x="0" y="0" width="73" height="73" fill="#73c000"/>
   <path d="M -36 36 
L 36 -36 
M -30 42 
L 42 -30 
M -24 48 
L 48 -24 
M -18 54 
L 54 -18 
M -12 60 
L 60 -12 
M -6 66 
L 66 -6 
M 0 72 
L 72 0 
M 6 78 
L 78 6 
M 12 84 
L 84 12 
M 18 90 
L 90 18 
M 24 96 
L 96 24 
M 30 102 
L 102 30 
M 36 108 
L 108 36 
" style="fill: #000000; stroke: #000000; stroke-width: 1.0; stroke-linecap: butt; stroke-linejoin: miter; stroke-opacity: 0.9"/>
  </pattern>
  <pattern id="h778a81bf24" patternUnits="userSpaceOnUse" x="0" y="0" width="72" height="72">
   <rect x="0" y="0" width="73" height="73" fill="#df89ff"/>
   <path d="M -36 36 
L 36 -36 
M -30 42 
L 42 -30 
M -24 48 
L 48 -24 
M -18 54 
L 54 -18 
M -12 60 
L 60 -12 
M -6 66 
L 66 -6 
M 0 72 
L 72 0 
M 6 78 
L 78 6 
M 12 84 
L 84 12 
M 18 90 
L 90 18 
M 24 96 
L 96 24 
M 30 102 
L 102 30 
M 36 108 
L 108 36 
" style="fill: #000000; stroke: #000000; stroke-width: 1.0; stroke-linecap: butt; stroke-linejoin: miter; stroke-opacity: 0.9"/>
  </pattern>
  <pattern id="h5fb554ad70" patternUnits="userSpaceOnUse" x="0" y="0" width="72" height="72">
   <rect x="0" y="0" width="73" height="73" fill="#660068"/>
   <path d="M -36 36 
L 36 -36 
M -30 42 
L 42 -30 
M -24 48 
L 48 -24 
M -18 54 
L 54 -18 
M -12 60 
L 60 -12 
M -6 66 
L 66 -6 
M 0 72 
L 72 0 
M 6 78 
L 78 6 
M 12 84 
L 84 12 
M 18 90 
L 90 18 
M 24 96 
L 96 24 
M 30 102 
L 102 30 
M 36 108 
L 108 36 
" style="fill: #000000; stroke: #000000; stroke-width: 1.0; stroke-linecap: butt; stroke-linejoin: miter; stroke-opacity: 0.9"/>
  </pattern>
  <pattern id="h211101b022" patternUnits="userSpaceOnUse" x="0" y="0" width="72" height="72">
   <rect x="0" y="0" width="73" height="73" fill="#00c4ff"/>
   <path d="M -36 36 
L 36 -36 
M -30 42 
L 42 -30 
M -24 48 
L 48 -24 
M -18 54 
L 54 -18 
M -12 60 
L 60 -12 
M -6 66 
L 66 -6 
M 0 72 
L 72 0 
M 6 78 
L 78 6 
M 12 84 
L 84 12 
M 18 90 
L 90 18 
M 24 96 
L 96 24 
M 30 102 
L 102 30 
M 36 108 
L 108 36 
" style="fill: #000000; stroke: #000000; stroke-width: 1.0; stroke-linecap: butt; stroke-linejoin: miter; stroke-opacity: 0.9"/>
  </pattern>
  <pattern id="h9fdc23ea7a" patternUnits="userSpaceOnUse" x="0" y="0" width="72" height="72">
   <rect x="0" y="0" width="73" height="73" fill="#ff8805"/>
   <path d="M -36 36 
L 36 -36 
M -30 42 
L 42 -30 
M -24 48 
L 48 -24 
M -18 54 
L 54 -18 
M -12 60 
L 60 -12 
M -6 66 
L 66 -6 
M 0 72 
L 72 0 
M 6 78 
L 78 6 
M 12 84 
L 84 12 
M 18 90 
L 90 18 
M 24 96 
L 96 24 
M 30 102 
L 102 30 
M 36 108 
L 108 36 
" style="fill: #000000; stroke: #000000; stroke-width: 1.0; stroke-linecap: butt; stroke-linejoin: miter; stroke-opacity: 0.9"/>
  </pattern>
  <pattern id="h50c1e3590f" patternUnits="userSpaceOnUse" x="0" y="0" width="72" height="72">
   <rect x="0" y="0" width="73" height="73" fill="#ff5584"/>
   <path d="M -36 36 
L 36 -36 
M -30 42 
L 42 -30 
M -24 48 
L 48 -24 
M -18 54 
L 54 -18 
M -12 60 
L 60 -12 
M -6 66 
L 66 -6 
M 0 72 
L 72 0 
M 6 78 
L 78 6 
M 12 84 
L 84 12 
M 18 90 
L 90 18 
M 24 96 
L 96 24 
M 30 102 
L 102 30 
M 36 108 
L 108 36 
" style="fill: #000000; stroke: #000000; stroke-width: 1.0; stroke-linecap: butt; stroke-linejoin: miter; stroke-opacity: 0.9"/>
  </pattern>
  <pattern id="hf36e494769" patternUnits="userSpaceOnUse" x="0" y="0" width="72" height="72">
   <rect x="0" y="0" width="73" height="73" fill="#0000ff"/>
   <path d="M -36 36 
L 36 -36 
M -30 42 
L 42 -30 
M -24 48 
L 48 -24 
M -18 54 
L 54 -18 
M -12 60 
L 60 -12 
M -6 66 
L 66 -6 
M 0 72 
L 72 0 
M 6 78 
L 78 6 
M 12 84 
L 84 12 
M 18 90 
L 90 18 
M 24 96 
L 96 24 
M 30 102 
L 102 30 
M 36 108 
L 108 36 
" style="fill: #000000; stroke: #000000; stroke-width: 1.0; stroke-linecap: butt; stroke-linejoin: miter; stroke-opacity: 0.9"/>
  </pattern>
  <pattern id="h448db11d77" patternUnits="userSpaceOnUse" x="0" y="0" width="72" height="72">
   <rect x="0" y="0" width="73" height="73" fill="#00bd94"/>
   <path d="M -36 36 
L 36 -36 
M -30 42 
L 42 -30 
M -24 48 
L 48 -24 
M -18 54 
L 54 -18 
M -12 60 
L 60 -12 
M -6 66 
L 66 -6 
M 0 72 
L 72 0 
M 6 78 
L 78 6 
M 12 84 
L 84 12 
M 18 90 
L 90 18 
M 24 96 
L 96 24 
M 30 102 
L 102 30 
M 36 108 
L 108 36 
" style="fill: #000000; stroke: #000000; stroke-width: 1.0; stroke-linecap: butt; stroke-linejoin: miter; stroke-opacity: 0.9"/>
  </pattern>
 </defs>
</svg>
