<?xml version="1.0" encoding="utf-8" standalone="no"?>
<!DOCTYPE svg PUBLIC "-//W3C//DTD SVG 1.1//EN"
  "http://www.w3.org/Graphics/SVG/1.1/DTD/svg11.dtd">
<svg xmlns:xlink="http://www.w3.org/1999/xlink" width="576pt" height="720pt" viewBox="0 0 576 720" xmlns="http://www.w3.org/2000/svg" version="1.1">
 <metadata>
  <rdf:RDF xmlns:dc="http://purl.org/dc/elements/1.1/" xmlns:cc="http://creativecommons.org/ns#" xmlns:rdf="http://www.w3.org/1999/02/22-rdf-syntax-ns#">
   <cc:Work>
    <dc:type rdf:resource="http://purl.org/dc/dcmitype/StillImage"/>
    <dc:date>2025-04-04T15:08:15.951873</dc:date>
    <dc:format>image/svg+xml</dc:format>
    <dc:creator>
     <cc:Agent>
      <dc:title>Matplotlib v3.10.1, https://matplotlib.org/</dc:title>
     </cc:Agent>
    </dc:creator>
   </cc:Work>
  </rdf:RDF>
 </metadata>
 <defs>
  <style type="text/css">*{stroke-linejoin: round; stroke-linecap: butt}</style>
 </defs>
 <g id="figure_1">
  <g id="patch_1">
   <path d="M 0 720 
L 576 720 
L 576 0 
L 0 0 
z
" style="fill: #ffffff"/>
  </g>
  <g id="axes_1">
   <g id="patch_2">
    <path d="M 5.76 712.8 
L 570.24 712.8 
L 570.24 7.2 
L 5.76 7.2 
z
" style="fill: #eaeaf2"/>
   </g>
   <g id="matplotlib.axis_1"/>
   <g id="matplotlib.axis_2"/>
   <g id="line2d_1">
    <path d="M 5.76 30.173023 
L 570.24 30.173023 
" style="fill: none; stroke: #f9c0e9; stroke-width: 50"/>
   </g>
   <g id="line2d_2">
    <path d="M 5.76 154.883721 
L 570.24 154.883721 
" clip-path="url(#p7d76ad73b3)" style="fill: none; stroke: #2ca02c; stroke-opacity: 0.8; stroke-width: 14; stroke-linecap: round"/>
   </g>
   <g id="line2d_3">
    <path d="M 5.76 253.339535 
L 570.24 253.339535 
" clip-path="url(#p7d76ad73b3)" style="fill: none; stroke: #d62728; stroke-opacity: 0.8; stroke-width: 14; stroke-linecap: round"/>
   </g>
   <g id="line2d_4">
    <path d="M 5.76 614.344186 
L 570.24 614.344186 
" clip-path="url(#p7d76ad73b3)" style="fill: none; stroke: #2ca02c; stroke-opacity: 0.8; stroke-width: 14; stroke-linecap: round"/>
   </g>
   <g id="line2d_5">
    <path d="M 5.76 515.888372 
L 570.24 515.888372 
" clip-path="url(#p7d76ad73b3)" style="fill: none; stroke: #d62728; stroke-opacity: 0.8; stroke-width: 14; stroke-linecap: round"/>
   </g>
   <g id="patch_3">
    <path d="M 5.76 712.8 
L 5.76 7.2 
" style="fill: none"/>
   </g>
   <g id="patch_4">
    <path d="M 570.24 712.8 
L 570.24 7.2 
" style="fill: none"/>
   </g>
   <g id="patch_5">
    <path d="M 5.76 712.8 
L 570.24 712.8 
" style="fill: none"/>
   </g>
   <g id="patch_6">
    <path d="M 5.76 7.2 
L 570.24 7.2 
" style="fill: none"/>
   </g>
   <g id="patch_7">
    <path d="M 31.418182 384.613953 
L 74.181818 384.613953 
L 74.181818 590.386605 
L 31.418182 590.386605 
z
" clip-path="url(#p7d76ad73b3)" style="fill: #ffe808; opacity: 0.9; stroke: #000000; stroke-linejoin: miter"/>
   </g>
   <g id="patch_8">
    <path d="M 74.181818 384.613953 
L 116.945455 384.613953 
L 116.945455 699.672558 
L 74.181818 699.672558 
z
" clip-path="url(#p7d76ad73b3)" style="fill: url(#h67909005fa); opacity: 0.9; stroke: #000000; stroke-linejoin: miter"/>
   </g>
   <g id="patch_9">
    <path d="M 173.963636 384.613953 
L 216.727273 384.613953 
L 216.727273 274.999814 
L 173.963636 274.999814 
z
" clip-path="url(#p7d76ad73b3)" style="fill: #ff974a; opacity: 0.9; stroke: #000000; stroke-linejoin: miter"/>
   </g>
   <g id="patch_10">
    <path d="M 216.727273 384.613953 
L 259.490909 384.613953 
L 259.490909 310.443907 
L 216.727273 310.443907 
z
" clip-path="url(#p7d76ad73b3)" style="fill: url(#h2c884de2d1); opacity: 0.9; stroke: #000000; stroke-linejoin: miter"/>
   </g>
   <g id="patch_11">
    <path d="M 316.509091 384.613953 
L 359.272727 384.613953 
L 359.272727 348.513488 
L 316.509091 348.513488 
z
" clip-path="url(#p7d76ad73b3)" style="fill: #ff4030; opacity: 0.9; stroke: #000000; stroke-linejoin: miter"/>
   </g>
   <g id="patch_12">
    <path d="M 359.272727 384.613953 
L 402.036364 384.613953 
L 402.036364 537.876837 
L 359.272727 537.876837 
z
" clip-path="url(#p7d76ad73b3)" style="fill: url(#haadf591375); opacity: 0.9; stroke: #000000; stroke-linejoin: miter"/>
   </g>
   <g id="patch_13">
    <path d="M 459.054545 384.613953 
L 501.818182 384.613953 
L 501.818182 654.054698 
L 459.054545 654.054698 
z
" clip-path="url(#p7d76ad73b3)" style="fill: #00ad00; opacity: 0.9; stroke: #000000; stroke-linejoin: miter"/>
   </g>
   <g id="patch_14">
    <path d="M 501.818182 384.613953 
L 544.581818 384.613953 
L 544.581818 647.162791 
L 501.818182 647.162791 
z
" clip-path="url(#p7d76ad73b3)" style="fill: url(#he884059f3c); opacity: 0.9; stroke: #000000; stroke-linejoin: miter"/>
   </g>
   <g id="line2d_6">
    <path d="M 5.76 384.613953 
L 570.24 384.613953 
" clip-path="url(#p7d76ad73b3)" style="fill: none; stroke: #000000; stroke-opacity: 0.8; stroke-width: 14; stroke-linecap: round"/>
   </g>
  </g>
 </g>
 <defs>
  <clipPath id="p7d76ad73b3">
   <rect x="5.76" y="7.2" width="564.48" height="705.6"/>
  </clipPath>
 </defs>
 <defs>
  <pattern id="h67909005fa" patternUnits="userSpaceOnUse" x="0" y="0" width="72" height="72">
   <rect x="0" y="0" width="73" height="73" fill="#ffe808"/>
   <path d="M -36 36 
L 36 -36 
M -30 42 
L 42 -30 
M -24 48 
L 48 -24 
M -18 54 
L 54 -18 
M -12 60 
L 60 -12 
M -6 66 
L 66 -6 
M 0 72 
L 72 0 
M 6 78 
L 78 6 
M 12 84 
L 84 12 
M 18 90 
L 90 18 
M 24 96 
L 96 24 
M 30 102 
L 102 30 
M 36 108 
L 108 36 
" style="fill: #000000; stroke: #000000; stroke-width: 1.0; stroke-linecap: butt; stroke-linejoin: miter; stroke-opacity: 0.9"/>
  </pattern>
  <pattern id="h2c884de2d1" patternUnits="userSpaceOnUse" x="0" y="0" width="72" height="72">
   <rect x="0" y="0" width="73" height="73" fill="#ff974a"/>
   <path d="M -36 36 
L 36 -36 
M -30 42 
L 42 -30 
M -24 48 
L 48 -24 
M -18 54 
L 54 -18 
M -12 60 
L 60 -12 
M -6 66 
L 66 -6 
M 0 72 
L 72 0 
M 6 78 
L 78 6 
M 12 84 
L 84 12 
M 18 90 
L 90 18 
M 24 96 
L 96 24 
M 30 102 
L 102 30 
M 36 108 
L 108 36 
" style="fill: #000000; stroke: #000000; stroke-width: 1.0; stroke-linecap: butt; stroke-linejoin: miter; stroke-opacity: 0.9"/>
  </pattern>
  <pattern id="haadf591375" patternUnits="userSpaceOnUse" x="0" y="0" width="72" height="72">
   <rect x="0" y="0" width="73" height="73" fill="#ff4030"/>
   <path d="M -36 36 
L 36 -36 
M -30 42 
L 42 -30 
M -24 48 
L 48 -24 
M -18 54 
L 54 -18 
M -12 60 
L 60 -12 
M -6 66 
L 66 -6 
M 0 72 
L 72 0 
M 6 78 
L 78 6 
M 12 84 
L 84 12 
M 18 90 
L 90 18 
M 24 96 
L 96 24 
M 30 102 
L 102 30 
M 36 108 
L 108 36 
" style="fill: #000000; stroke: #000000; stroke-width: 1.0; stroke-linecap: butt; stroke-linejoin: miter; stroke-opacity: 0.9"/>
  </pattern>
  <pattern id="he884059f3c" patternUnits="userSpaceOnUse" x="0" y="0" width="72" height="72">
   <rect x="0" y="0" width="73" height="73" fill="#00ad00"/>
   <path d="M -36 36 
L 36 -36 
M -30 42 
L 42 -30 
M -24 48 
L 48 -24 
M -18 54 
L 54 -18 
M -12 60 
L 60 -12 
M -6 66 
L 66 -6 
M 0 72 
L 72 0 
M 6 78 
L 78 6 
M 12 84 
L 84 12 
M 18 90 
L 90 18 
M 24 96 
L 96 24 
M 30 102 
L 102 30 
M 36 108 
L 108 36 
" style="fill: #000000; stroke: #000000; stroke-width: 1.0; stroke-linecap: butt; stroke-linejoin: miter; stroke-opacity: 0.9"/>
  </pattern>
 </defs>
</svg>
