<?xml version="1.0" encoding="utf-8" standalone="no"?>
<!DOCTYPE svg PUBLIC "-//W3C//DTD SVG 1.1//EN"
  "http://www.w3.org/Graphics/SVG/1.1/DTD/svg11.dtd">
<svg xmlns:xlink="http://www.w3.org/1999/xlink" width="432pt" height="720pt" viewBox="0 0 432 720" xmlns="http://www.w3.org/2000/svg" version="1.1">
 <metadata>
  <rdf:RDF xmlns:dc="http://purl.org/dc/elements/1.1/" xmlns:cc="http://creativecommons.org/ns#" xmlns:rdf="http://www.w3.org/1999/02/22-rdf-syntax-ns#">
   <cc:Work>
    <dc:type rdf:resource="http://purl.org/dc/dcmitype/StillImage"/>
    <dc:date>2025-04-04T15:08:13.019948</dc:date>
    <dc:format>image/svg+xml</dc:format>
    <dc:creator>
     <cc:Agent>
      <dc:title>Matplotlib v3.10.1, https://matplotlib.org/</dc:title>
     </cc:Agent>
    </dc:creator>
   </cc:Work>
  </rdf:RDF>
 </metadata>
 <defs>
  <style type="text/css">*{stroke-linejoin: round; stroke-linecap: butt}</style>
 </defs>
 <g id="figure_1">
  <g id="patch_1">
   <path d="M 0 720 
L 432 720 
L 432 0 
L 0 0 
z
" style="fill: #ffffff"/>
  </g>
  <g id="axes_1">
   <g id="patch_2">
    <path d="M 4.32 712.8 
L 427.68 712.8 
L 427.68 7.2 
L 4.32 7.2 
z
" style="fill: #eaeaf2"/>
   </g>
   <g id="matplotlib.axis_1"/>
   <g id="matplotlib.axis_2"/>
   <g id="line2d_1">
    <path d="M 4.32 30.173023 
L 427.68 30.173023 
" style="fill: none; stroke: #00b7da; stroke-width: 50"/>
   </g>
   <g id="line2d_2">
    <path d="M 4.32 154.883721 
L 427.68 154.883721 
" clip-path="url(#pef18d24ab0)" style="fill: none; stroke: #2ca02c; stroke-opacity: 0.8; stroke-width: 14; stroke-linecap: round"/>
   </g>
   <g id="line2d_3">
    <path d="M 4.32 253.339535 
L 427.68 253.339535 
" clip-path="url(#pef18d24ab0)" style="fill: none; stroke: #d62728; stroke-opacity: 0.8; stroke-width: 14; stroke-linecap: round"/>
   </g>
   <g id="line2d_4">
    <path d="M 4.32 614.344186 
L 427.68 614.344186 
" clip-path="url(#pef18d24ab0)" style="fill: none; stroke: #2ca02c; stroke-opacity: 0.8; stroke-width: 14; stroke-linecap: round"/>
   </g>
   <g id="line2d_5">
    <path d="M 4.32 515.888372 
L 427.68 515.888372 
" clip-path="url(#pef18d24ab0)" style="fill: none; stroke: #d62728; stroke-opacity: 0.8; stroke-width: 14; stroke-linecap: round"/>
   </g>
   <g id="patch_3">
    <path d="M 4.32 712.8 
L 4.32 7.2 
" style="fill: none"/>
   </g>
   <g id="patch_4">
    <path d="M 427.68 712.8 
L 427.68 7.2 
" style="fill: none"/>
   </g>
   <g id="patch_5">
    <path d="M 4.32 712.8 
L 427.68 712.8 
" style="fill: none"/>
   </g>
   <g id="patch_6">
    <path d="M 4.32 7.2 
L 427.68 7.2 
" style="fill: none"/>
   </g>
   <g id="patch_7">
    <path d="M 23.563636 384.613953 
L 67.972028 384.613953 
L 67.972028 712.8 
L 23.563636 712.8 
z
" clip-path="url(#pef18d24ab0)" style="fill: #9a96e5; opacity: 0.9; stroke: #000000; stroke-linejoin: miter"/>
   </g>
   <g id="patch_8">
    <path d="M 67.972028 384.613953 
L 112.38042 384.613953 
L 112.38042 712.8 
L 67.972028 712.8 
z
" clip-path="url(#pef18d24ab0)" style="fill: url(#hd2725c414a); opacity: 0.9; stroke: #000000; stroke-linejoin: miter"/>
   </g>
   <g id="patch_9">
    <path d="M 171.591608 384.613953 
L 216 384.613953 
L 216 182.123163 
L 171.591608 182.123163 
z
" clip-path="url(#pef18d24ab0)" style="fill: #f97743; opacity: 0.9; stroke: #000000; stroke-linejoin: miter"/>
   </g>
   <g id="patch_10">
    <path d="M 216 384.613953 
L 260.408392 384.613953 
L 260.408392 56.427907 
L 216 56.427907 
z
" clip-path="url(#pef18d24ab0)" style="fill: url(#hc18e178c73); opacity: 0.9; stroke: #000000; stroke-linejoin: miter"/>
   </g>
   <g id="patch_11">
    <path d="M 319.61958 384.613953 
L 364.027972 384.613953 
L 364.027972 712.8 
L 319.61958 712.8 
z
" clip-path="url(#pef18d24ab0)" style="fill: #28b36a; opacity: 0.9; stroke: #000000; stroke-linejoin: miter"/>
   </g>
   <g id="patch_12">
    <path d="M 364.027972 384.613953 
L 408.436364 384.613953 
L 408.436364 712.8 
L 364.027972 712.8 
z
" clip-path="url(#pef18d24ab0)" style="fill: url(#h0f98aa712c); opacity: 0.9; stroke: #000000; stroke-linejoin: miter"/>
   </g>
   <g id="line2d_6">
    <path d="M 4.32 384.613953 
L 427.68 384.613953 
" clip-path="url(#pef18d24ab0)" style="fill: none; stroke: #000000; stroke-opacity: 0.8; stroke-width: 14; stroke-linecap: round"/>
   </g>
  </g>
 </g>
 <defs>
  <clipPath id="pef18d24ab0">
   <rect x="4.32" y="7.2" width="423.36" height="705.6"/>
  </clipPath>
 </defs>
 <defs>
  <pattern id="hd2725c414a" patternUnits="userSpaceOnUse" x="0" y="0" width="72" height="72">
   <rect x="0" y="0" width="73" height="73" fill="#9a96e5"/>
   <path d="M -36 36 
L 36 -36 
M -30 42 
L 42 -30 
M -24 48 
L 48 -24 
M -18 54 
L 54 -18 
M -12 60 
L 60 -12 
M -6 66 
L 66 -6 
M 0 72 
L 72 0 
M 6 78 
L 78 6 
M 12 84 
L 84 12 
M 18 90 
L 90 18 
M 24 96 
L 96 24 
M 30 102 
L 102 30 
M 36 108 
L 108 36 
" style="fill: #000000; stroke: #000000; stroke-width: 1.0; stroke-linecap: butt; stroke-linejoin: miter; stroke-opacity: 0.9"/>
  </pattern>
  <pattern id="hc18e178c73" patternUnits="userSpaceOnUse" x="0" y="0" width="72" height="72">
   <rect x="0" y="0" width="73" height="73" fill="#f97743"/>
   <path d="M -36 36 
L 36 -36 
M -30 42 
L 42 -30 
M -24 48 
L 48 -24 
M -18 54 
L 54 -18 
M -12 60 
L 60 -12 
M -6 66 
L 66 -6 
M 0 72 
L 72 0 
M 6 78 
L 78 6 
M 12 84 
L 84 12 
M 18 90 
L 90 18 
M 24 96 
L 96 24 
M 30 102 
L 102 30 
M 36 108 
L 108 36 
" style="fill: #000000; stroke: #000000; stroke-width: 1.0; stroke-linecap: butt; stroke-linejoin: miter; stroke-opacity: 0.9"/>
  </pattern>
  <pattern id="h0f98aa712c" patternUnits="userSpaceOnUse" x="0" y="0" width="72" height="72">
   <rect x="0" y="0" width="73" height="73" fill="#28b36a"/>
   <path d="M -36 36 
L 36 -36 
M -30 42 
L 42 -30 
M -24 48 
L 48 -24 
M -18 54 
L 54 -18 
M -12 60 
L 60 -12 
M -6 66 
L 66 -6 
M 0 72 
L 72 0 
M 6 78 
L 78 6 
M 12 84 
L 84 12 
M 18 90 
L 90 18 
M 24 96 
L 96 24 
M 30 102 
L 102 30 
M 36 108 
L 108 36 
" style="fill: #000000; stroke: #000000; stroke-width: 1.0; stroke-linecap: butt; stroke-linejoin: miter; stroke-opacity: 0.9"/>
  </pattern>
 </defs>
</svg>
