<?xml version="1.0" encoding="utf-8" standalone="no"?>
<!DOCTYPE svg PUBLIC "-//W3C//DTD SVG 1.1//EN"
  "http://www.w3.org/Graphics/SVG/1.1/DTD/svg11.dtd">
<svg xmlns:xlink="http://www.w3.org/1999/xlink" width="576pt" height="720pt" viewBox="0 0 576 720" xmlns="http://www.w3.org/2000/svg" version="1.1">
 <metadata>
  <rdf:RDF xmlns:dc="http://purl.org/dc/elements/1.1/" xmlns:cc="http://creativecommons.org/ns#" xmlns:rdf="http://www.w3.org/1999/02/22-rdf-syntax-ns#">
   <cc:Work>
    <dc:type rdf:resource="http://purl.org/dc/dcmitype/StillImage"/>
    <dc:date>2025-08-30T23:01:49.985585</dc:date>
    <dc:format>image/svg+xml</dc:format>
    <dc:creator>
     <cc:Agent>
      <dc:title>Matplotlib v3.10.5, https://matplotlib.org/</dc:title>
     </cc:Agent>
    </dc:creator>
   </cc:Work>
  </rdf:RDF>
 </metadata>
 <defs>
  <style type="text/css">*{stroke-linejoin: round; stroke-linecap: butt}</style>
 </defs>
 <g id="figure_1">
  <g id="patch_1">
   <path d="M 0 720 
L 576 720 
L 576 0 
L 0 0 
z
" style="fill: #ffffff"/>
  </g>
  <g id="axes_1">
   <g id="patch_2">
    <path d="M 5.76 712.8 
L 570.24 712.8 
L 570.24 7.2 
L 5.76 7.2 
z
" style="fill: #eaeaf2"/>
   </g>
   <g id="matplotlib.axis_1"/>
   <g id="matplotlib.axis_2"/>
   <g id="line2d_1">
    <path d="M 5.76 30.066667 
L 570.24 30.066667 
" style="fill: none; stroke: #c2db7c; stroke-width: 50"/>
   </g>
   <g id="line2d_2">
    <path d="M 5.76 154.2 
L 570.24 154.2 
" clip-path="url(#p67faaaf9dc)" style="fill: none; stroke: #2ca02c; stroke-opacity: 0.8; stroke-width: 14; stroke-linecap: round"/>
   </g>
   <g id="line2d_3">
    <path d="M 5.76 252.2 
L 570.24 252.2 
" clip-path="url(#p67faaaf9dc)" style="fill: none; stroke: #d62728; stroke-opacity: 0.8; stroke-width: 14; stroke-linecap: round"/>
   </g>
   <g id="line2d_4">
    <path d="M 5.76 611.533333 
L 570.24 611.533333 
" clip-path="url(#p67faaaf9dc)" style="fill: none; stroke: #2ca02c; stroke-opacity: 0.8; stroke-width: 14; stroke-linecap: round"/>
   </g>
   <g id="line2d_5">
    <path d="M 5.76 513.533333 
L 570.24 513.533333 
" clip-path="url(#p67faaaf9dc)" style="fill: none; stroke: #d62728; stroke-opacity: 0.8; stroke-width: 14; stroke-linecap: round"/>
   </g>
   <g id="patch_3">
    <path d="M 5.76 712.8 
L 5.76 7.2 
" style="fill: none"/>
   </g>
   <g id="patch_4">
    <path d="M 570.24 712.8 
L 570.24 7.2 
" style="fill: none"/>
   </g>
   <g id="patch_5">
    <path d="M 5.76 712.8 
L 570.24 712.8 
" style="fill: none"/>
   </g>
   <g id="patch_6">
    <path d="M 5.76 7.2 
L 570.24 7.2 
" style="fill: none"/>
   </g>
   <g id="patch_7">
    <path d="M 31.418182 382.866667 
L 73.8284 382.866667 
L 73.8284 709.533333 
L 31.418182 709.533333 
z
" clip-path="url(#p67faaaf9dc)" style="fill: #ffffff; opacity: 0.9; stroke: #000000; stroke-linejoin: miter"/>
   </g>
   <g id="patch_8">
    <path d="M 172.785575 382.866667 
L 215.195793 382.866667 
L 215.195793 368.493333 
L 172.785575 368.493333 
z
" clip-path="url(#p67faaaf9dc)" style="fill: #ffffff; opacity: 0.9; stroke: #000000; stroke-linejoin: miter"/>
   </g>
   <g id="patch_9">
    <path d="M 314.152968 382.866667 
L 356.563186 382.866667 
L 356.563186 194.053333 
L 314.152968 194.053333 
z
" clip-path="url(#p67faaaf9dc)" style="fill: #ffffff; opacity: 0.9; stroke: #000000; stroke-linejoin: miter"/>
   </g>
   <g id="patch_10">
    <path d="M 455.520361 382.866667 
L 497.930579 382.866667 
L 497.930579 709.533333 
L 455.520361 709.533333 
z
" clip-path="url(#p67faaaf9dc)" style="fill: #ffffff; opacity: 0.9; stroke: #000000; stroke-linejoin: miter"/>
   </g>
   <g id="patch_11">
    <path d="M 31.418182 382.866667 
L 73.8284 382.866667 
L 73.8284 444.28 
L 31.418182 444.28 
z
" clip-path="url(#p67faaaf9dc)" style="fill: #ffe808; opacity: 0.9; stroke: #000000; stroke-linejoin: miter"/>
   </g>
   <g id="patch_12">
    <path d="M 78.069421 382.866667 
L 120.479639 382.866667 
L 120.479639 709.533333 
L 78.069421 709.533333 
z
" clip-path="url(#p67faaaf9dc)" style="fill: url(#h7c259a75fc); opacity: 0.9; stroke: #000000; stroke-linejoin: miter"/>
   </g>
   <g id="patch_13">
    <path d="M 172.785575 382.866667 
L 215.195793 382.866667 
L 215.195793 373.393333 
L 172.785575 373.393333 
z
" clip-path="url(#p67faaaf9dc)" style="fill: #ff974a; opacity: 0.9; stroke: #000000; stroke-linejoin: miter"/>
   </g>
   <g id="patch_14">
    <path d="M 219.436814 382.866667 
L 261.847032 382.866667 
L 261.847032 654.98 
L 219.436814 654.98 
z
" clip-path="url(#p67faaaf9dc)" style="fill: url(#hd345c0912c); opacity: 0.9; stroke: #000000; stroke-linejoin: miter"/>
   </g>
   <g id="patch_15">
    <path d="M 314.152968 382.866667 
L 356.563186 382.866667 
L 356.563186 224.76 
L 314.152968 224.76 
z
" clip-path="url(#p67faaaf9dc)" style="fill: #ff4030; opacity: 0.9; stroke: #000000; stroke-linejoin: miter"/>
   </g>
   <g id="patch_16">
    <path d="M 360.804207 382.866667 
L 403.214425 382.866667 
L 403.214425 438.073333 
L 360.804207 438.073333 
z
" clip-path="url(#p67faaaf9dc)" style="fill: url(#hf35122f51d); opacity: 0.9; stroke: #000000; stroke-linejoin: miter"/>
   </g>
   <g id="patch_17">
    <path d="M 455.520361 382.866667 
L 497.930579 382.866667 
L 497.930579 481.846667 
L 455.520361 481.846667 
z
" clip-path="url(#p67faaaf9dc)" style="fill: #00ad00; opacity: 0.9; stroke: #000000; stroke-linejoin: miter"/>
   </g>
   <g id="patch_18">
    <path d="M 502.1716 382.866667 
L 544.581818 382.866667 
L 544.581818 709.533333 
L 502.1716 709.533333 
z
" clip-path="url(#p67faaaf9dc)" style="fill: url(#he46b9eb75a); opacity: 0.9; stroke: #000000; stroke-linejoin: miter"/>
   </g>
   <g id="line2d_6">
    <path d="M 5.76 382.866667 
L 570.24 382.866667 
" clip-path="url(#p67faaaf9dc)" style="fill: none; stroke: #000000; stroke-opacity: 0.8; stroke-width: 14; stroke-linecap: round"/>
   </g>
  </g>
 </g>
 <defs>
  <clipPath id="p67faaaf9dc">
   <rect x="5.76" y="7.2" width="564.48" height="705.6"/>
  </clipPath>
 </defs>
 <defs>
  <pattern id="h7c259a75fc" patternUnits="userSpaceOnUse" x="0" y="0" width="72" height="72">
   <rect x="0" y="0" width="73" height="73" fill="#ffe808"/>
   <path d="M -36 36 
L 36 -36 
M -24 48 
L 48 -24 
M -12 60 
L 60 -12 
M 0 72 
L 72 0 
M 12 84 
L 84 12 
M 24 96 
L 96 24 
M 36 108 
L 108 36 
M -36 36 
L 36 108 
M -24 24 
L 48 96 
M -12 12 
L 60 84 
M 0 0 
L 72 72 
M 12 -12 
L 84 60 
M 24 -24 
L 96 48 
M 36 -36 
L 108 36 
" style="fill: #000000; stroke: #000000; stroke-width: 1.0; stroke-linecap: butt; stroke-linejoin: miter; stroke-opacity: 0.9"/>
  </pattern>
  <pattern id="hd345c0912c" patternUnits="userSpaceOnUse" x="0" y="0" width="72" height="72">
   <rect x="0" y="0" width="73" height="73" fill="#ff974a"/>
   <path d="M -36 36 
L 36 -36 
M -24 48 
L 48 -24 
M -12 60 
L 60 -12 
M 0 72 
L 72 0 
M 12 84 
L 84 12 
M 24 96 
L 96 24 
M 36 108 
L 108 36 
M -36 36 
L 36 108 
M -24 24 
L 48 96 
M -12 12 
L 60 84 
M 0 0 
L 72 72 
M 12 -12 
L 84 60 
M 24 -24 
L 96 48 
M 36 -36 
L 108 36 
" style="fill: #000000; stroke: #000000; stroke-width: 1.0; stroke-linecap: butt; stroke-linejoin: miter; stroke-opacity: 0.9"/>
  </pattern>
  <pattern id="hf35122f51d" patternUnits="userSpaceOnUse" x="0" y="0" width="72" height="72">
   <rect x="0" y="0" width="73" height="73" fill="#ff4030"/>
   <path d="M -36 36 
L 36 -36 
M -24 48 
L 48 -24 
M -12 60 
L 60 -12 
M 0 72 
L 72 0 
M 12 84 
L 84 12 
M 24 96 
L 96 24 
M 36 108 
L 108 36 
M -36 36 
L 36 108 
M -24 24 
L 48 96 
M -12 12 
L 60 84 
M 0 0 
L 72 72 
M 12 -12 
L 84 60 
M 24 -24 
L 96 48 
M 36 -36 
L 108 36 
" style="fill: #000000; stroke: #000000; stroke-width: 1.0; stroke-linecap: butt; stroke-linejoin: miter; stroke-opacity: 0.9"/>
  </pattern>
  <pattern id="he46b9eb75a" patternUnits="userSpaceOnUse" x="0" y="0" width="72" height="72">
   <rect x="0" y="0" width="73" height="73" fill="#00ad00"/>
   <path d="M -36 36 
L 36 -36 
M -24 48 
L 48 -24 
M -12 60 
L 60 -12 
M 0 72 
L 72 0 
M 12 84 
L 84 12 
M 24 96 
L 96 24 
M 36 108 
L 108 36 
M -36 36 
L 36 108 
M -24 24 
L 48 96 
M -12 12 
L 60 84 
M 0 0 
L 72 72 
M 12 -12 
L 84 60 
M 24 -24 
L 96 48 
M 36 -36 
L 108 36 
" style="fill: #000000; stroke: #000000; stroke-width: 1.0; stroke-linecap: butt; stroke-linejoin: miter; stroke-opacity: 0.9"/>
  </pattern>
 </defs>
</svg>
