<?xml version="1.0" encoding="utf-8" standalone="no"?>
<!DOCTYPE svg PUBLIC "-//W3C//DTD SVG 1.1//EN"
  "http://www.w3.org/Graphics/SVG/1.1/DTD/svg11.dtd">
<svg xmlns:xlink="http://www.w3.org/1999/xlink" width="1152pt" height="720pt" viewBox="0 0 1152 720" xmlns="http://www.w3.org/2000/svg" version="1.1">
 <metadata>
  <rdf:RDF xmlns:dc="http://purl.org/dc/elements/1.1/" xmlns:cc="http://creativecommons.org/ns#" xmlns:rdf="http://www.w3.org/1999/02/22-rdf-syntax-ns#">
   <cc:Work>
    <dc:type rdf:resource="http://purl.org/dc/dcmitype/StillImage"/>
    <dc:date>2025-04-04T15:08:13.984363</dc:date>
    <dc:format>image/svg+xml</dc:format>
    <dc:creator>
     <cc:Agent>
      <dc:title>Matplotlib v3.10.1, https://matplotlib.org/</dc:title>
     </cc:Agent>
    </dc:creator>
   </cc:Work>
  </rdf:RDF>
 </metadata>
 <defs>
  <style type="text/css">*{stroke-linejoin: round; stroke-linecap: butt}</style>
 </defs>
 <g id="figure_1">
  <g id="patch_1">
   <path d="M 0 720 
L 1152 720 
L 1152 0 
L 0 0 
z
" style="fill: #ffffff"/>
  </g>
  <g id="axes_1">
   <g id="patch_2">
    <path d="M 11.52 712.8 
L 1140.48 712.8 
L 1140.48 7.2 
L 11.52 7.2 
z
" style="fill: #eaeaf2"/>
   </g>
   <g id="matplotlib.axis_1"/>
   <g id="matplotlib.axis_2"/>
   <g id="line2d_1">
    <path d="M 11.52 30.173023 
L 1140.48 30.173023 
" style="fill: none; stroke: #ff306a; stroke-width: 50"/>
   </g>
   <g id="line2d_2">
    <path d="M 11.52 154.883721 
L 1140.48 154.883721 
" clip-path="url(#p7624ec8aad)" style="fill: none; stroke: #2ca02c; stroke-opacity: 0.8; stroke-width: 14; stroke-linecap: round"/>
   </g>
   <g id="line2d_3">
    <path d="M 11.52 253.339535 
L 1140.48 253.339535 
" clip-path="url(#p7624ec8aad)" style="fill: none; stroke: #d62728; stroke-opacity: 0.8; stroke-width: 14; stroke-linecap: round"/>
   </g>
   <g id="line2d_4">
    <path d="M 11.52 614.344186 
L 1140.48 614.344186 
" clip-path="url(#p7624ec8aad)" style="fill: none; stroke: #2ca02c; stroke-opacity: 0.8; stroke-width: 14; stroke-linecap: round"/>
   </g>
   <g id="line2d_5">
    <path d="M 11.52 515.888372 
L 1140.48 515.888372 
" clip-path="url(#p7624ec8aad)" style="fill: none; stroke: #d62728; stroke-opacity: 0.8; stroke-width: 14; stroke-linecap: round"/>
   </g>
   <g id="patch_3">
    <path d="M 11.52 712.8 
L 11.52 7.2 
" style="fill: none"/>
   </g>
   <g id="patch_4">
    <path d="M 1140.48 712.8 
L 1140.48 7.2 
" style="fill: none"/>
   </g>
   <g id="patch_5">
    <path d="M 11.52 712.8 
L 1140.48 712.8 
" style="fill: none"/>
   </g>
   <g id="patch_6">
    <path d="M 11.52 7.2 
L 1140.48 7.2 
" style="fill: none"/>
   </g>
   <g id="patch_7">
    <path d="M 62.836364 384.613953 
L 103.349282 384.613953 
L 103.349282 712.8 
L 62.836364 712.8 
z
" clip-path="url(#p7624ec8aad)" style="fill: #fc0014; opacity: 0.9; stroke: #000000; stroke-linejoin: miter"/>
   </g>
   <g id="patch_8">
    <path d="M 103.349282 384.613953 
L 143.862201 384.613953 
L 143.862201 712.8 
L 103.349282 712.8 
z
" clip-path="url(#p7624ec8aad)" style="fill: url(#h167f7c5299); opacity: 0.9; stroke: #000000; stroke-linejoin: miter"/>
   </g>
   <g id="patch_9">
    <path d="M 197.879426 384.613953 
L 238.392344 384.613953 
L 238.392344 712.8 
L 197.879426 712.8 
z
" clip-path="url(#p7624ec8aad)" style="fill: #00c9ff; opacity: 0.9; stroke: #000000; stroke-linejoin: miter"/>
   </g>
   <g id="patch_10">
    <path d="M 238.392344 384.613953 
L 278.905263 384.613953 
L 278.905263 712.8 
L 238.392344 712.8 
z
" clip-path="url(#p7624ec8aad)" style="fill: url(#h699674fb34); opacity: 0.9; stroke: #000000; stroke-linejoin: miter"/>
   </g>
   <g id="patch_11">
    <path d="M 332.922488 384.613953 
L 373.435407 384.613953 
L 373.435407 712.8 
L 332.922488 712.8 
z
" clip-path="url(#p7624ec8aad)" style="fill: #8aff00; opacity: 0.9; stroke: #000000; stroke-linejoin: miter"/>
   </g>
   <g id="patch_12">
    <path d="M 373.435407 384.613953 
L 413.948325 384.613953 
L 413.948325 712.8 
L 373.435407 712.8 
z
" clip-path="url(#p7624ec8aad)" style="fill: url(#h7cd183216e); opacity: 0.9; stroke: #000000; stroke-linejoin: miter"/>
   </g>
   <g id="patch_13">
    <path d="M 467.96555 384.613953 
L 508.478469 384.613953 
L 508.478469 305.19293 
L 467.96555 305.19293 
z
" clip-path="url(#p7624ec8aad)" style="fill: #2700fa; opacity: 0.9; stroke: #000000; stroke-linejoin: miter"/>
   </g>
   <g id="patch_14">
    <path d="M 508.478469 384.613953 
L 548.991388 384.613953 
L 548.991388 687.529674 
L 508.478469 687.529674 
z
" clip-path="url(#p7624ec8aad)" style="fill: url(#h26b0a70453); opacity: 0.9; stroke: #000000; stroke-linejoin: miter"/>
   </g>
   <g id="patch_15">
    <path d="M 603.008612 384.613953 
L 643.521531 384.613953 
L 643.521531 381.003907 
L 603.008612 381.003907 
z
" clip-path="url(#p7624ec8aad)" style="fill: #6a005f; opacity: 0.9; stroke: #000000; stroke-linejoin: miter"/>
   </g>
   <g id="patch_16">
    <path d="M 643.521531 384.613953 
L 684.03445 384.613953 
L 684.03445 581.525581 
L 643.521531 581.525581 
z
" clip-path="url(#p7624ec8aad)" style="fill: url(#h91a678296c); opacity: 0.9; stroke: #000000; stroke-linejoin: miter"/>
   </g>
   <g id="patch_17">
    <path d="M 738.051675 384.613953 
L 778.564593 384.613953 
L 778.564593 370.501953 
L 738.051675 370.501953 
z
" clip-path="url(#p7624ec8aad)" style="fill: #ff9224; opacity: 0.9; stroke: #000000; stroke-linejoin: miter"/>
   </g>
   <g id="patch_18">
    <path d="M 778.564593 384.613953 
L 819.077512 384.613953 
L 819.077512 674.074047 
L 778.564593 674.074047 
z
" clip-path="url(#p7624ec8aad)" style="fill: url(#h09ba268ff0); opacity: 0.9; stroke: #000000; stroke-linejoin: miter"/>
   </g>
   <g id="patch_19">
    <path d="M 873.094737 384.613953 
L 913.607656 384.613953 
L 913.607656 126.331535 
L 873.094737 126.331535 
z
" clip-path="url(#p7624ec8aad)" style="fill: #009900; opacity: 0.9; stroke: #000000; stroke-linejoin: miter"/>
   </g>
   <g id="patch_20">
    <path d="M 913.607656 384.613953 
L 954.120574 384.613953 
L 954.120574 275.328 
L 913.607656 275.328 
z
" clip-path="url(#p7624ec8aad)" style="fill: url(#h351bb15fa0); opacity: 0.9; stroke: #000000; stroke-linejoin: miter"/>
   </g>
   <g id="patch_21">
    <path d="M 1008.137799 384.613953 
L 1048.650718 384.613953 
L 1048.650718 712.8 
L 1008.137799 712.8 
z
" clip-path="url(#p7624ec8aad)" style="fill: #ff69cc; opacity: 0.9; stroke: #000000; stroke-linejoin: miter"/>
   </g>
   <g id="patch_22">
    <path d="M 1048.650718 384.613953 
L 1089.163636 384.613953 
L 1089.163636 712.8 
L 1048.650718 712.8 
z
" clip-path="url(#p7624ec8aad)" style="fill: url(#h8a83310abf); opacity: 0.9; stroke: #000000; stroke-linejoin: miter"/>
   </g>
   <g id="line2d_6">
    <path d="M 11.52 384.613953 
L 1140.48 384.613953 
" clip-path="url(#p7624ec8aad)" style="fill: none; stroke: #000000; stroke-opacity: 0.8; stroke-width: 14; stroke-linecap: round"/>
   </g>
  </g>
 </g>
 <defs>
  <clipPath id="p7624ec8aad">
   <rect x="11.52" y="7.2" width="1128.96" height="705.6"/>
  </clipPath>
 </defs>
 <defs>
  <pattern id="h167f7c5299" patternUnits="userSpaceOnUse" x="0" y="0" width="72" height="72">
   <rect x="0" y="0" width="73" height="73" fill="#fc0014"/>
   <path d="M -36 36 
L 36 -36 
M -30 42 
L 42 -30 
M -24 48 
L 48 -24 
M -18 54 
L 54 -18 
M -12 60 
L 60 -12 
M -6 66 
L 66 -6 
M 0 72 
L 72 0 
M 6 78 
L 78 6 
M 12 84 
L 84 12 
M 18 90 
L 90 18 
M 24 96 
L 96 24 
M 30 102 
L 102 30 
M 36 108 
L 108 36 
" style="fill: #000000; stroke: #000000; stroke-width: 1.0; stroke-linecap: butt; stroke-linejoin: miter; stroke-opacity: 0.9"/>
  </pattern>
  <pattern id="h699674fb34" patternUnits="userSpaceOnUse" x="0" y="0" width="72" height="72">
   <rect x="0" y="0" width="73" height="73" fill="#00c9ff"/>
   <path d="M -36 36 
L 36 -36 
M -30 42 
L 42 -30 
M -24 48 
L 48 -24 
M -18 54 
L 54 -18 
M -12 60 
L 60 -12 
M -6 66 
L 66 -6 
M 0 72 
L 72 0 
M 6 78 
L 78 6 
M 12 84 
L 84 12 
M 18 90 
L 90 18 
M 24 96 
L 96 24 
M 30 102 
L 102 30 
M 36 108 
L 108 36 
" style="fill: #000000; stroke: #000000; stroke-width: 1.0; stroke-linecap: butt; stroke-linejoin: miter; stroke-opacity: 0.9"/>
  </pattern>
  <pattern id="h7cd183216e" patternUnits="userSpaceOnUse" x="0" y="0" width="72" height="72">
   <rect x="0" y="0" width="73" height="73" fill="#8aff00"/>
   <path d="M -36 36 
L 36 -36 
M -30 42 
L 42 -30 
M -24 48 
L 48 -24 
M -18 54 
L 54 -18 
M -12 60 
L 60 -12 
M -6 66 
L 66 -6 
M 0 72 
L 72 0 
M 6 78 
L 78 6 
M 12 84 
L 84 12 
M 18 90 
L 90 18 
M 24 96 
L 96 24 
M 30 102 
L 102 30 
M 36 108 
L 108 36 
" style="fill: #000000; stroke: #000000; stroke-width: 1.0; stroke-linecap: butt; stroke-linejoin: miter; stroke-opacity: 0.9"/>
  </pattern>
  <pattern id="h26b0a70453" patternUnits="userSpaceOnUse" x="0" y="0" width="72" height="72">
   <rect x="0" y="0" width="73" height="73" fill="#2700fa"/>
   <path d="M -36 36 
L 36 -36 
M -30 42 
L 42 -30 
M -24 48 
L 48 -24 
M -18 54 
L 54 -18 
M -12 60 
L 60 -12 
M -6 66 
L 66 -6 
M 0 72 
L 72 0 
M 6 78 
L 78 6 
M 12 84 
L 84 12 
M 18 90 
L 90 18 
M 24 96 
L 96 24 
M 30 102 
L 102 30 
M 36 108 
L 108 36 
" style="fill: #000000; stroke: #000000; stroke-width: 1.0; stroke-linecap: butt; stroke-linejoin: miter; stroke-opacity: 0.9"/>
  </pattern>
  <pattern id="h91a678296c" patternUnits="userSpaceOnUse" x="0" y="0" width="72" height="72">
   <rect x="0" y="0" width="73" height="73" fill="#6a005f"/>
   <path d="M -36 36 
L 36 -36 
M -30 42 
L 42 -30 
M -24 48 
L 48 -24 
M -18 54 
L 54 -18 
M -12 60 
L 60 -12 
M -6 66 
L 66 -6 
M 0 72 
L 72 0 
M 6 78 
L 78 6 
M 12 84 
L 84 12 
M 18 90 
L 90 18 
M 24 96 
L 96 24 
M 30 102 
L 102 30 
M 36 108 
L 108 36 
" style="fill: #000000; stroke: #000000; stroke-width: 1.0; stroke-linecap: butt; stroke-linejoin: miter; stroke-opacity: 0.9"/>
  </pattern>
  <pattern id="h09ba268ff0" patternUnits="userSpaceOnUse" x="0" y="0" width="72" height="72">
   <rect x="0" y="0" width="73" height="73" fill="#ff9224"/>
   <path d="M -36 36 
L 36 -36 
M -30 42 
L 42 -30 
M -24 48 
L 48 -24 
M -18 54 
L 54 -18 
M -12 60 
L 60 -12 
M -6 66 
L 66 -6 
M 0 72 
L 72 0 
M 6 78 
L 78 6 
M 12 84 
L 84 12 
M 18 90 
L 90 18 
M 24 96 
L 96 24 
M 30 102 
L 102 30 
M 36 108 
L 108 36 
" style="fill: #000000; stroke: #000000; stroke-width: 1.0; stroke-linecap: butt; stroke-linejoin: miter; stroke-opacity: 0.9"/>
  </pattern>
  <pattern id="h351bb15fa0" patternUnits="userSpaceOnUse" x="0" y="0" width="72" height="72">
   <rect x="0" y="0" width="73" height="73" fill="#009900"/>
   <path d="M -36 36 
L 36 -36 
M -30 42 
L 42 -30 
M -24 48 
L 48 -24 
M -18 54 
L 54 -18 
M -12 60 
L 60 -12 
M -6 66 
L 66 -6 
M 0 72 
L 72 0 
M 6 78 
L 78 6 
M 12 84 
L 84 12 
M 18 90 
L 90 18 
M 24 96 
L 96 24 
M 30 102 
L 102 30 
M 36 108 
L 108 36 
" style="fill: #000000; stroke: #000000; stroke-width: 1.0; stroke-linecap: butt; stroke-linejoin: miter; stroke-opacity: 0.9"/>
  </pattern>
  <pattern id="h8a83310abf" patternUnits="userSpaceOnUse" x="0" y="0" width="72" height="72">
   <rect x="0" y="0" width="73" height="73" fill="#ff69cc"/>
   <path d="M -36 36 
L 36 -36 
M -30 42 
L 42 -30 
M -24 48 
L 48 -24 
M -18 54 
L 54 -18 
M -12 60 
L 60 -12 
M -6 66 
L 66 -6 
M 0 72 
L 72 0 
M 6 78 
L 78 6 
M 12 84 
L 84 12 
M 18 90 
L 90 18 
M 24 96 
L 96 24 
M 30 102 
L 102 30 
M 36 108 
L 108 36 
" style="fill: #000000; stroke: #000000; stroke-width: 1.0; stroke-linecap: butt; stroke-linejoin: miter; stroke-opacity: 0.9"/>
  </pattern>
 </defs>
</svg>
