<?xml version="1.0" encoding="utf-8" standalone="no"?>
<!DOCTYPE svg PUBLIC "-//W3C//DTD SVG 1.1//EN"
  "http://www.w3.org/Graphics/SVG/1.1/DTD/svg11.dtd">
<svg xmlns:xlink="http://www.w3.org/1999/xlink" width="432pt" height="720pt" viewBox="0 0 432 720" xmlns="http://www.w3.org/2000/svg" version="1.1">
 <metadata>
  <rdf:RDF xmlns:dc="http://purl.org/dc/elements/1.1/" xmlns:cc="http://creativecommons.org/ns#" xmlns:rdf="http://www.w3.org/1999/02/22-rdf-syntax-ns#">
   <cc:Work>
    <dc:type rdf:resource="http://purl.org/dc/dcmitype/StillImage"/>
    <dc:date>2025-08-30T22:50:21.336826</dc:date>
    <dc:format>image/svg+xml</dc:format>
    <dc:creator>
     <cc:Agent>
      <dc:title>Matplotlib v3.10.5, https://matplotlib.org/</dc:title>
     </cc:Agent>
    </dc:creator>
   </cc:Work>
  </rdf:RDF>
 </metadata>
 <defs>
  <style type="text/css">*{stroke-linejoin: round; stroke-linecap: butt}</style>
 </defs>
 <g id="figure_1">
  <g id="patch_1">
   <path d="M 0 720 
L 432 720 
L 432 0 
L 0 0 
z
" style="fill: #ffffff"/>
  </g>
  <g id="axes_1">
   <g id="patch_2">
    <path d="M 4.32 712.8 
L 427.68 712.8 
L 427.68 7.2 
L 4.32 7.2 
z
" style="fill: #eaeaf2"/>
   </g>
   <g id="matplotlib.axis_1"/>
   <g id="matplotlib.axis_2"/>
   <g id="line2d_1">
    <path d="M 4.32 30.066667 
L 427.68 30.066667 
" style="fill: none; stroke: #00b7da; stroke-width: 50"/>
   </g>
   <g id="line2d_2">
    <path d="M 4.32 154.2 
L 427.68 154.2 
" clip-path="url(#p8979531d31)" style="fill: none; stroke: #2ca02c; stroke-opacity: 0.8; stroke-width: 14; stroke-linecap: round"/>
   </g>
   <g id="line2d_3">
    <path d="M 4.32 252.2 
L 427.68 252.2 
" clip-path="url(#p8979531d31)" style="fill: none; stroke: #d62728; stroke-opacity: 0.8; stroke-width: 14; stroke-linecap: round"/>
   </g>
   <g id="line2d_4">
    <path d="M 4.32 611.533333 
L 427.68 611.533333 
" clip-path="url(#p8979531d31)" style="fill: none; stroke: #2ca02c; stroke-opacity: 0.8; stroke-width: 14; stroke-linecap: round"/>
   </g>
   <g id="line2d_5">
    <path d="M 4.32 513.533333 
L 427.68 513.533333 
" clip-path="url(#p8979531d31)" style="fill: none; stroke: #d62728; stroke-opacity: 0.8; stroke-width: 14; stroke-linecap: round"/>
   </g>
   <g id="patch_3">
    <path d="M 4.32 712.8 
L 4.32 7.2 
" style="fill: none"/>
   </g>
   <g id="patch_4">
    <path d="M 427.68 712.8 
L 427.68 7.2 
" style="fill: none"/>
   </g>
   <g id="patch_5">
    <path d="M 4.32 712.8 
L 427.68 712.8 
" style="fill: none"/>
   </g>
   <g id="patch_6">
    <path d="M 4.32 7.2 
L 427.68 7.2 
" style="fill: none"/>
   </g>
   <g id="patch_7">
    <path d="M 23.563636 382.866667 
L 67.465468 382.866667 
L 67.465468 709.533333 
L 23.563636 709.533333 
z
" clip-path="url(#p8979531d31)" style="fill: #ffffff; opacity: 0.9; stroke: #000000; stroke-linejoin: miter"/>
   </g>
   <g id="patch_8">
    <path d="M 169.903076 382.866667 
L 213.804908 382.866667 
L 213.804908 56.2 
L 169.903076 56.2 
z
" clip-path="url(#p8979531d31)" style="fill: #ffffff; opacity: 0.9; stroke: #000000; stroke-linejoin: miter"/>
   </g>
   <g id="patch_9">
    <path d="M 316.242516 382.866667 
L 360.144348 382.866667 
L 360.144348 709.533333 
L 316.242516 709.533333 
z
" clip-path="url(#p8979531d31)" style="fill: #ffffff; opacity: 0.9; stroke: #000000; stroke-linejoin: miter"/>
   </g>
   <g id="patch_10">
    <path d="M 23.563636 382.866667 
L 67.465468 382.866667 
L 67.465468 483.806667 
L 23.563636 483.806667 
z
" clip-path="url(#p8979531d31)" style="fill: #9a96e5; opacity: 0.9; stroke: #000000; stroke-linejoin: miter"/>
   </g>
   <g id="patch_11">
    <path d="M 71.855652 382.866667 
L 115.757484 382.866667 
L 115.757484 709.533333 
L 71.855652 709.533333 
z
" clip-path="url(#p8979531d31)" style="fill: url(#h5972b231df); opacity: 0.9; stroke: #000000; stroke-linejoin: miter"/>
   </g>
   <g id="patch_12">
    <path d="M 169.903076 382.866667 
L 213.804908 382.866667 
L 213.804908 181.313333 
L 169.903076 181.313333 
z
" clip-path="url(#p8979531d31)" style="fill: #f97743; opacity: 0.9; stroke: #000000; stroke-linejoin: miter"/>
   </g>
   <g id="patch_13">
    <path d="M 218.195092 382.866667 
L 262.096924 382.866667 
L 262.096924 56.2 
L 218.195092 56.2 
z
" clip-path="url(#p8979531d31)" style="fill: url(#h9c1a61b53c); opacity: 0.9; stroke: #000000; stroke-linejoin: miter"/>
   </g>
   <g id="patch_14">
    <path d="M 316.242516 382.866667 
L 360.144348 382.866667 
L 360.144348 483.806667 
L 316.242516 483.806667 
z
" clip-path="url(#p8979531d31)" style="fill: #28b36a; opacity: 0.9; stroke: #000000; stroke-linejoin: miter"/>
   </g>
   <g id="patch_15">
    <path d="M 364.534532 382.866667 
L 408.436364 382.866667 
L 408.436364 709.533333 
L 364.534532 709.533333 
z
" clip-path="url(#p8979531d31)" style="fill: url(#hd6302b1771); opacity: 0.9; stroke: #000000; stroke-linejoin: miter"/>
   </g>
   <g id="line2d_6">
    <path d="M 4.32 382.866667 
L 427.68 382.866667 
" clip-path="url(#p8979531d31)" style="fill: none; stroke: #000000; stroke-opacity: 0.8; stroke-width: 14; stroke-linecap: round"/>
   </g>
  </g>
 </g>
 <defs>
  <clipPath id="p8979531d31">
   <rect x="4.32" y="7.2" width="423.36" height="705.6"/>
  </clipPath>
 </defs>
 <defs>
  <pattern id="h5972b231df" patternUnits="userSpaceOnUse" x="0" y="0" width="72" height="72">
   <rect x="0" y="0" width="73" height="73" fill="#9a96e5"/>
   <path d="M -36 36 
L 36 -36 
M -24 48 
L 48 -24 
M -12 60 
L 60 -12 
M 0 72 
L 72 0 
M 12 84 
L 84 12 
M 24 96 
L 96 24 
M 36 108 
L 108 36 
M -36 36 
L 36 108 
M -24 24 
L 48 96 
M -12 12 
L 60 84 
M 0 0 
L 72 72 
M 12 -12 
L 84 60 
M 24 -24 
L 96 48 
M 36 -36 
L 108 36 
" style="fill: #000000; stroke: #000000; stroke-width: 1.0; stroke-linecap: butt; stroke-linejoin: miter; stroke-opacity: 0.9"/>
  </pattern>
  <pattern id="h9c1a61b53c" patternUnits="userSpaceOnUse" x="0" y="0" width="72" height="72">
   <rect x="0" y="0" width="73" height="73" fill="#f97743"/>
   <path d="M -36 36 
L 36 -36 
M -24 48 
L 48 -24 
M -12 60 
L 60 -12 
M 0 72 
L 72 0 
M 12 84 
L 84 12 
M 24 96 
L 96 24 
M 36 108 
L 108 36 
M -36 36 
L 36 108 
M -24 24 
L 48 96 
M -12 12 
L 60 84 
M 0 0 
L 72 72 
M 12 -12 
L 84 60 
M 24 -24 
L 96 48 
M 36 -36 
L 108 36 
" style="fill: #000000; stroke: #000000; stroke-width: 1.0; stroke-linecap: butt; stroke-linejoin: miter; stroke-opacity: 0.9"/>
  </pattern>
  <pattern id="hd6302b1771" patternUnits="userSpaceOnUse" x="0" y="0" width="72" height="72">
   <rect x="0" y="0" width="73" height="73" fill="#28b36a"/>
   <path d="M -36 36 
L 36 -36 
M -24 48 
L 48 -24 
M -12 60 
L 60 -12 
M 0 72 
L 72 0 
M 12 84 
L 84 12 
M 24 96 
L 96 24 
M 36 108 
L 108 36 
M -36 36 
L 36 108 
M -24 24 
L 48 96 
M -12 12 
L 60 84 
M 0 0 
L 72 72 
M 12 -12 
L 84 60 
M 24 -24 
L 96 48 
M 36 -36 
L 108 36 
" style="fill: #000000; stroke: #000000; stroke-width: 1.0; stroke-linecap: butt; stroke-linejoin: miter; stroke-opacity: 0.9"/>
  </pattern>
 </defs>
</svg>
